<?xml version="1.0" encoding="UTF-8" standalone="no"?>
<svg
   width="400"
   height="400"
   viewBox="63 83 301.5625 301.24688"
   preserveAspectRatio="xMidYMid"
   version="1.1"
   id="svg4"
   sodipodi:docname="logo5.svg"
   inkscape:version="1.4.3 (0d15f75, 2025-12-25)"
   inkscape:export-filename="logo5.png"
   inkscape:export-xdpi="3.8399999"
   inkscape:export-ydpi="3.8399999"
   xml:space="preserve"
   xmlns:inkscape="http://www.inkscape.org/namespaces/inkscape"
   xmlns:sodipodi="http://sodipodi.sourceforge.net/DTD/sodipodi-0.dtd"
   xmlns="http://www.w3.org/2000/svg"
   xmlns:svg="http://www.w3.org/2000/svg"><defs
     id="defs4"><inkscape:perspective
       sodipodi:type="inkscape:persp3d"
       inkscape:vp_x="0 : 150.62344 : 1"
       inkscape:vp_y="0 : 1000 : 0"
       inkscape:vp_z="301.5625 : 150.62344 : 1"
       inkscape:persp3d-origin="150.78125 : 100.41563 : 1"
       id="perspective3" /><inkscape:path-effect
       effect="perspective-envelope"
       up_left_point="120,308.50522"
       up_right_point="335.3204,308.50522"
       down_left_point="93.495003,364.31108"
       down_right_point="335.3204,364.31108"
       id="path-effect3"
       is_visible="true"
       lpeversion="1"
       deform_type="perspective"
       horizontal_mirror="false"
       vertical_mirror="true"
       overflow_perspective="false" /><inkscape:path-effect
       effect="perspective-envelope"
       up_left_point="120,306.84741"
       up_right_point="347.91209,306.84655"
       down_left_point="79.897496,369.36193"
       down_right_point="347.91209,369.36193"
       id="path-effect2"
       is_visible="true"
       lpeversion="1"
       deform_type="perspective"
       horizontal_mirror="false"
       vertical_mirror="true"
       overflow_perspective="false" /><inkscape:path-effect
       effect="envelope"
       id="path-effect1"
       is_visible="true"
       lpeversion="1"
       yy="true"
       xx="true"
       bendpath1="M 79.897816,306.84672 H 347.91166"
       bendpath2="m 347.91166,306.84672 v 62.51487"
       bendpath3="M 79.897816,369.36159 H 347.91166"
       bendpath4="m 79.897816,306.84672 v 62.51487" /></defs><sodipodi:namedview
     id="namedview4"
     pagecolor="#ffffff"
     bordercolor="#000000"
     borderopacity="0.25"
     inkscape:showpageshadow="2"
     inkscape:pageopacity="0.0"
     inkscape:pagecheckerboard="0"
     inkscape:deskcolor="#d1d1d1"
     showgrid="true"
     inkscape:zoom="0.8740648"
     inkscape:cx="228.24395"
     inkscape:cy="362.67334"
     inkscape:window-width="1920"
     inkscape:window-height="892"
     inkscape:window-x="-8"
     inkscape:window-y="-8"
     inkscape:window-maximized="1"
     inkscape:current-layer="svg4"><inkscape:grid
       id="grid4"
       units="px"
       originx="0"
       originy="0"
       spacingx="0.75390625"
       spacingy="0.75311721"
       empcolor="#0099e5"
       empopacity="0.30196078"
       color="#0099e5"
       opacity="0.14901961"
       empspacing="5"
       enabled="true"
       visible="true" /></sodipodi:namedview><!-- Laptop screen outer frame --><rect
     x="88.324112"
     y="108.10605"
     width="250.88062"
     height="178.17441"
     fill="none"
     stroke="#fca311"
     stroke-width="21.8319"
     rx="12.54403"
     ry="12.958137"
     id="rect1"
     style="display:inline;fill:#ffffff;fill-opacity:1;stroke:#fca311;stroke-width:20.7072;stroke-dasharray:none;stroke-dashoffset:0;stroke-opacity:1" /><!-- Laptop base --><!-- Laptop base detail --><!-- Less-than symbol --><!-- Centered forward slash symbol "/" --><!-- Greater-than symbol --><path
     style="display:inline;fill:#ffffff;stroke-width:15.0781"
     id="rect2"
     width="241.82539"
     height="55.805859"
     x="93.495003"
     y="308.50522"
     sodipodi:type="rect"
     d="m 106.7475,308.50522 215.3204,0 13.2525,55.80586 H 93.495001 Z"
     transform="matrix(1,0,0,0.95628417,-0.60990048,15.926168)"
     inkscape:path-effect="#path-effect3" /><path
     id="path51"
     style="display:inline;fill:#fca311;fill-opacity:1;stroke-width:0.0584185"
     d="m 321.38048,306.847 -193.91309,0.28573 c -4.10502,0.005 -8.25342,1.20485 -9.22542,2.67501 l -8.01413,12.12062 c -0.1632,0.14868 -0.29737,0.30109 -0.40009,0.4564 l -28.688264,43.37226 c -1.311757,1.98323 1.554145,3.61324 6.378664,3.60488 l 227.85569,-0.39442 c 4.81595,-0.007 8.87584,-1.64776 9.02269,-3.62699 l 1.11883,-15.07071 c 0.0826,-0.1722 0.13149,-0.34831 0.14474,-0.52757 l 2.97636,-40.2461 c 0.10851,-1.4676 -3.15714,-2.65514 -7.25598,-2.64911 z m -8.07274,5.37156 c 2.08005,-0.004 3.7168,0.6077 3.63752,1.35991 l -0.43829,4.15927 c -0.0814,0.7727 -1.88327,1.41078 -4.00345,1.41399 l -11.56595,0.0174 c -2.12028,0.004 -3.75582,-0.62935 -3.63384,-1.40216 l 0.65646,-4.15993 c 0.11875,-0.75232 1.91782,-1.36736 3.99822,-1.37045 z m -34.04945,0.0516 c 2.08133,-0.003 3.66161,0.6066 3.5113,1.35901 l -0.83105,4.16044 c -0.15439,0.77292 -2.0161,1.41116 -4.13753,1.41439 l -11.56954,0.0188 c -2.12095,0.004 -3.69694,-0.62953 -3.50198,-1.40257 l 1.04936,-4.16112 c 0.1898,-0.75255 2.04753,-1.36904 4.1285,-1.37214 z m -34.057,0.0491 c 2.08127,-0.004 3.60446,0.60805 3.38307,1.36068 l -1.22405,4.16161 c -0.22741,0.77316 -2.1503,1.41159 -4.27168,1.4148 l -11.57251,0.0174 c -2.12157,0.004 -3.63845,-0.62836 -3.37046,-1.40162 l 1.44247,-4.16231 c 0.26089,-0.75277 2.17709,-1.36941 4.25865,-1.37252 z m -34.0673,0.0516 c 2.08189,-0.004 3.54755,0.60822 3.25504,1.36106 l -1.61726,4.16282 c -0.30048,0.77338 -2.28343,1.41064 -4.4054,1.41387 l -11.5778,0.0188 c -2.12224,0.004 -3.57764,-0.62987 -3.23656,-1.40337 l 1.8358,-4.16347 c 0.33202,-0.75298 2.30673,-1.36981 4.38889,-1.37291 z m -34.07643,0.0503 c 2.08287,-0.004 3.49058,0.60841 3.12693,1.36145 l -2.01069,4.16398 c -0.37355,0.77361 -2.41728,1.4124 -4.54022,1.41562 l -11.58057,0.0174 c -2.12287,0.004 -3.51863,-0.63005 -3.10445,-1.40376 l 2.22936,-4.16465 c 0.40321,-0.75319 2.43578,-1.36888 4.51851,-1.37199 z m -34.0867,0.0517 c 2.08352,-0.004 3.43362,0.60854 2.99877,1.36184 l -2.40436,4.16519 c -0.44671,0.77381 -2.55033,1.41148 -4.67384,1.41468 l -11.58326,0.0188 c -2.12354,0.004 -3.46105,-0.63024 -2.97371,-1.40416 l 2.62316,-4.16586 c 0.47442,-0.75342 2.56543,-1.36929 4.64878,-1.37238 z m 168.75993,12.4955 c 2.15359,-0.004 3.84567,0.65148 3.76046,1.45796 l -0.47134,4.46154 c -0.0231,0.21897 -0.16992,0.42867 -0.41496,0.61762 -0.71934,0.48418 -2.09449,0.81843 -3.62787,0.82085 l -11.98056,0.0187 c -2.1963,0.004 -3.88677,-0.67509 -3.75591,-1.50426 l 0.70389,-4.46045 c 0.0337,-0.2135 0.19016,-0.41624 0.44053,-0.59968 0.72947,-0.4686 2.09103,-0.7906 3.59511,-0.79292 z m -35.25356,0.0553 c 2.15494,-0.004 3.7879,0.65028 3.62653,1.45699 l -0.89411,4.46285 c -0.0438,0.21902 -0.21042,0.42879 -0.47333,0.61778 -0.7652,0.48435 -2.17156,0.81867 -3.70591,0.82111 l -11.98442,0.0201 c -2.19701,0.004 -3.82362,-0.67528 -3.61443,-1.50471 l 1.12517,-4.46179 c 0.0539,-0.21364 0.22823,-0.4177 0.49611,-0.60124 0.77389,-0.46865 2.16763,-0.79083 3.67195,-0.79315 z m -35.26173,0.0525 c 2.15491,-0.004 3.72518,0.65184 3.4876,1.4588 l -1.31422,4.46415 c -0.0647,0.2197 -0.25302,0.42994 -0.53511,0.6194 -0.81144,0.48372 -2.24782,0.8175 -3.78063,0.81992 l -11.98809,0.0201 c -2.1977,0.004 -3.76039,-0.67551 -3.47286,-1.50517 l 1.54671,-4.46308 c 0.074,-0.21354 0.26808,-0.41793 0.55297,-0.60142 0.81813,-0.46899 2.2422,-0.79104 3.74738,-0.79337 z m -35.27275,0.0554 c 2.15558,-0.004 3.66417,0.65205 3.35034,1.45924 l -1.73604,4.46548 c -0.0855,0.21988 -0.29287,0.42856 -0.59315,0.61816 -0.85731,0.48372 -2.32564,0.81775 -3.85861,0.82016 l -11.99325,0.0201 c -2.1984,0.004 -3.69568,-0.67568 -3.32971,-1.50561 l 1.96848,-4.46438 c 0.0942,-0.21367 0.30683,-0.41663 0.60925,-0.60022 0.86259,-0.46904 2.31801,-0.79267 3.82346,-0.79499 z m -35.28253,0.054 c 2.1566,-0.004 3.6031,0.65224 3.21299,1.45965 l -2.15811,4.46679 c -0.10591,0.21927 -0.33341,0.42913 -0.65014,0.61834 -0.90283,0.4847 -2.40349,0.81941 -3.93883,0.82184 l -11.99621,0.0187 c -2.19907,0.004 -3.6324,-0.67589 -3.18798,-1.50604 l 2.39051,-4.46569 c 0.11441,-0.21367 0.34637,-0.41678 0.66604,-0.60038 0.907,-0.46925 2.39237,-0.79151 3.89839,-0.79384 z m -35.29353,0.0554 c 2.15729,-0.004 3.54202,0.65239 3.07556,1.46009 l -2.58043,4.46813 c -0.12664,0.21934 -0.37253,0.42927 -0.70717,0.61852 -0.94878,0.48485 -2.48278,0.81966 -4.01856,0.82209 l -11.99831,0.0187 c -2.19978,0.004 -3.57057,-0.6761 -3.04764,-1.5065 l 2.8128,-4.46702 c 0.1351,-0.21459 0.38755,-0.41773 0.72664,-0.60196 0.95172,-0.46833 2.46581,-0.79036 3.9702,-0.79267 z M 310.15114,338.571 c 2.23207,-0.004 3.98314,0.6998 3.8916,1.56633 l -0.50666,4.79597 c -0.0249,0.23511 -0.17858,0.45973 -0.4327,0.66269 -0.7477,0.52137 -2.17494,0.8819 -3.76624,0.88449 l -12.42603,0.0201 c -2.27799,0.004 -4.02721,-0.72584 -3.88641,-1.61794 l 0.75664,-4.79474 c 0.036,-0.22825 0.19686,-0.44501 0.45523,-0.64133 0.75794,-0.50476 2.17431,-0.85227 3.73576,-0.85479 z m -36.53822,0.0594 c 2.23348,-0.004 3.9192,0.70003 3.74581,1.56681 l -0.95928,4.79592 c -0.0471,0.23516 -0.22053,0.45989 -0.4938,0.6629 -0.79707,0.52156 -2.25951,0.88217 -3.85187,0.88476 l -13.86221,0.0232 c -9.6e-4,-1.3e-4 -0.002,1.5e-4 -0.003,0 -1.57741,-0.21649 -2.60487,-0.82529 -2.42555,-1.53555 l 1.21131,-4.79827 c 0.21887,-0.8669 2.22476,-1.57688 4.45789,-1.58046 z m -36.54705,0.0564 c 2.23347,-0.004 3.85367,0.70027 3.5984,1.56727 l -1.41276,4.79887 c -0.20985,0.71282 -1.58024,1.32654 -3.28605,1.54658 l -15.06681,0.0248 c -1.56198,-0.21556 -2.53697,-0.82431 -2.29012,-1.53603 l 1.66465,-4.79973 c 0.30078,-0.86717 2.37405,-1.57734 4.60782,-1.58094 z m -36.55888,0.0595 c 2.2342,-0.004 3.7881,0.70048 3.45092,1.56776 l -1.86623,4.80036 c -0.27722,0.71302 -1.70523,1.32541 -3.43203,1.54552 h -0.008 l -15.05917,0.0248 h -0.005 c -1.54277,-0.21545 -2.45962,-0.82431 -2.14538,-1.5365 l 2.11827,-4.80118 c 0.38272,-0.8674 2.52337,-1.57782 4.75783,-1.58141 z m -36.56938,0.058 c 2.2353,-0.004 3.72251,0.70068 3.30335,1.56822 l -2.31997,4.80182 c -0.34447,0.71297 -1.83056,1.32713 -3.57778,1.54754 -9.6e-4,1.3e-4 -0.002,-1.5e-4 -0.003,0 l -13.64835,0.0217 c -2.28096,0.004 -3.75371,-0.72677 -3.27558,-1.61994 l 2.56978,-4.80058 c 0.12225,-0.22834 0.36411,-0.44568 0.69644,-0.6421 0.94915,-0.50562 2.49888,-0.85331 4.06268,-0.85582 z m -36.58121,0.0595 c 2.23598,-0.004 3.65686,0.7009 3.15568,1.56871 l -2.77399,4.8033 c -0.13601,0.23544 -0.39612,0.46048 -0.74628,0.66372 -0.99474,0.52223 -2.59314,0.88327 -4.18725,0.88586 l -12.44663,0.0201 c -2.28172,0.004 -3.68563,-0.72701 -3.12303,-1.62044 l 3.02377,-4.80207 c 0.1439,-0.22859 0.40739,-0.44569 0.75873,-0.6423 0.99712,-0.50556 2.5788,-0.85358 4.14266,-0.85608 z m 181.0941,14.33822 c 2.31647,-0.004 4.13238,0.75396 4.03376,1.68725 l -0.54612,5.16945 c -0.10168,0.96232 -2.12152,1.7565 -4.48783,1.76052 l -12.90878,0.0216 c -2.3665,0.005 -4.17882,-0.78328 -4.02665,-1.7458 l 0.8173,-5.17036 c 0.14758,-0.93347 2.16366,-1.69653 4.48053,-1.70037 z m -37.91816,0.0624 c 2.31797,-0.004 4.06183,0.75419 3.87508,1.68779 l -1.03431,5.17107 c -0.19258,0.96264 -2.28697,1.75707 -4.65478,1.76107 l -129.19737,0.2189 c -2.36971,0.005 -3.88372,-0.78429 -3.36756,-1.74802 l 2.77262,-5.17692 c 0.50058,-0.93464 2.80638,-1.69862 5.12617,-1.70249 z m -151.7924,0.25306 c 2.3207,-0.004 3.77924,0.75514 3.23936,1.68993 l -2.9902,5.17766 c -0.55668,0.96388 -2.95319,1.75932 -5.32366,1.76333 l -12.93096,0.0217 c -2.370518,0.005 -3.81025,-0.78457 -3.202939,-1.74859 l 3.262239,-5.17858 c 0.58897,-0.93493 2.96736,-1.69919 5.28787,-1.70304 z"
     transform="matrix(1.1175992,0,0.43749505,1,-172.7828,8.5937501e-7)"
     inkscape:original-d="m 340.29147,306.84658 -227.95158,0.33573 c -4.82191,0.006 -9.32212,1.40981 -10.00065,3.11722 l -5.389432,13.56001 c -0.137095,0.16083 -0.240183,0.32556 -0.306834,0.49328 l -16.658993,41.91689 c -0.678694,1.7078 2.712266,3.0993 7.53416,3.09219 l 227.951589,-0.33572 c 4.82229,-0.006 9.32196,-1.40943 10.00064,-3.11723 l 5.38944,-13.56 c 0.1371,-0.16086 0.24016,-0.32552 0.30683,-0.49328 l 16.65899,-41.91689 c 0.67854,-1.70739 -2.71188,-3.09929 -7.53416,-3.0922 z m -11.23417,6.22268 c 2.41076,-0.004 4.10475,0.69234 3.76546,1.54609 l -1.85082,4.65744 c -0.33924,0.85362 -2.58983,1.55581 -5.00061,1.55934 l -13.15044,0.0191 c -2.41074,0.004 -4.10632,-0.69249 -3.76708,-1.5461 l 1.85082,-4.65743 c 0.3393,-0.85375 2.58928,-1.55435 5.00004,-1.55788 z m -39.45513,0.0589 c 2.41151,-0.004 4.10694,0.69089 3.76766,1.54463 l -1.85082,4.65743 c -0.33922,0.85363 -2.58909,1.5558 -5.00061,1.55935 l -13.15101,0.0206 c -2.41076,0.004 -4.10632,-0.69249 -3.76708,-1.5461 l 1.85082,-4.65743 c 0.33929,-0.85376 2.58987,-1.55581 5.00061,-1.55935 z m -39.45234,0.056 c 2.41074,-0.004 4.10638,0.69234 3.76708,1.5461 l -1.85082,4.65743 c -0.33924,0.85364 -2.58985,1.55582 -5.00061,1.55935 l -13.15043,0.0191 c -2.41074,0.004 -4.10689,-0.69101 -3.76766,-1.54462 l 1.85082,-4.65744 c 0.33929,-0.85377 2.58985,-1.5558 5.00061,-1.55935 z m -39.4535,0.0589 c 2.41073,-0.004 4.10638,0.69234 3.76708,1.54609 l -1.85082,4.65744 c -0.33925,0.85363 -2.58929,1.55433 -5.00004,1.55787 l -13.15263,0.0206 c -2.41075,0.004 -4.1047,-0.69247 -3.76546,-1.5461 l 1.85082,-4.65743 c 0.33929,-0.85377 2.58984,-1.55582 5.00061,-1.55935 z m -39.45293,0.0574 c 2.41114,-0.004 4.10637,0.69237 3.76708,1.5461 l -1.85082,4.65743 c -0.33923,0.85365 -2.58945,1.55582 -5.00061,1.55935 l -13.15206,0.0191 c -2.41073,0.004 -4.10468,-0.69247 -3.76545,-1.54609 l 1.85082,-4.65743 c 0.3393,-0.85377 2.58928,-1.55433 5.00003,-1.55788 z m -39.4535,0.0589 c 2.41115,-0.004 4.10637,0.69232 3.76708,1.5461 l -1.85082,4.65743 c -0.33925,0.85363 -2.58891,1.55437 -5.00003,1.55788 l -13.15101,0.0206 c -2.41075,0.004 -4.10631,-0.69248 -3.76708,-1.54609 l 1.85082,-4.65744 c 0.33929,-0.85378 2.58925,-1.55434 5.00003,-1.55787 z m 191.57113,13.76321 c 2.41076,-0.004 4.10475,0.69235 3.76546,1.5461 l -1.85082,4.65743 c -0.0897,0.22576 -0.31266,0.44172 -0.63734,0.63611 -0.93094,0.49724 -2.53624,0.83977 -4.21946,0.84225 l -13.15043,0.0191 c -2.41074,0.004 -4.10636,-0.69235 -3.76708,-1.54609 l 1.85082,-4.65744 c 0.0897,-0.22571 0.31387,-0.44028 0.63838,-0.63463 0.9309,-0.49733 2.53444,-0.83979 4.21784,-0.84226 z m -39.45512,0.0589 c 2.4115,-0.004 4.10856,0.69088 3.76928,1.54462 l -1.85245,4.65744 c -0.0897,0.22575 -0.31266,0.44172 -0.63733,0.6361 -0.93099,0.49726 -2.53568,0.83976 -4.21946,0.84226 l -13.15101,0.0206 c -2.41074,0.004 -4.10637,-0.69234 -3.76708,-1.54609 l 1.85082,-4.65744 c 0.0897,-0.22579 0.31264,-0.4417 0.63733,-0.6361 0.93095,-0.49723 2.53628,-0.83979 4.21946,-0.84226 z m -39.45235,0.0559 c 2.41074,-0.004 4.10638,0.69234 3.76708,1.5461 l -1.85082,4.65743 c -0.09,0.22639 -0.31503,0.44278 -0.64116,0.63758 -0.93134,0.49647 -2.53405,0.83831 -4.21564,0.84079 l -13.15101,0.0206 c -2.41074,0.004 -4.10636,-0.69236 -3.76708,-1.5461 l 1.85082,-4.65743 c 0.0897,-0.22562 0.31306,-0.44182 0.63734,-0.63611 0.93082,-0.49745 2.5358,-0.83977 4.21946,-0.84225 z m -39.4535,0.0589 c 2.41073,-0.004 4.10638,0.69235 3.76708,1.5461 l -1.85082,4.65743 c -0.09,0.2265 -0.31418,0.44122 -0.64059,0.63611 -0.93142,0.49632 -2.53436,0.83832 -4.21563,0.84078 l -13.15264,0.0206 c -2.41075,0.004 -4.10475,-0.69233 -3.76545,-1.5461 l 1.85082,-4.65743 c 0.0897,-0.22569 0.31231,-0.44031 0.63676,-0.63464 0.93087,-0.49736 2.53657,-0.84126 4.22003,-0.84373 z m -39.45293,0.0574 c 2.41113,-0.004 4.10637,0.69236 3.76708,1.54609 l -1.85082,4.65744 c -0.0897,0.22581 -0.31415,0.44168 -0.63896,0.63611 -0.93099,0.49718 -2.53447,0.83977 -4.21783,0.84225 l -13.15206,0.0191 c -2.41073,0.004 -4.10476,-0.69235 -3.76546,-1.54609 l 1.85082,-4.65744 c 0.0897,-0.22563 0.31246,-0.44034 0.63676,-0.63463 0.93084,-0.49744 2.53585,-0.83978 4.21946,-0.84226 z m -39.4535,0.0589 c 2.41114,-0.004 4.10637,0.69231 3.76708,1.54609 l -1.85082,4.65744 c -0.0897,0.22581 -0.31253,0.44169 -0.63733,0.6361 -0.931,0.49719 -2.53612,0.83978 -4.21946,0.84226 l -13.15044,0.0191 c -2.41074,0.004 -4.10639,-0.69236 -3.76708,-1.5461 l 1.85082,-4.65743 c 0.09,-0.22653 0.31418,-0.44121 0.64059,-0.63611 0.93141,-0.49632 2.53434,-0.83832 4.21563,-0.84078 z m 191.71495,13.68222 c 2.41076,-0.004 4.10473,0.69231 3.76545,1.54609 l -1.85082,4.65744 c -0.0896,0.2254 -0.31297,0.44049 -0.63676,0.63463 -0.93074,0.4978 -2.53585,0.84126 -4.22003,0.84373 l -13.15044,0.0191 c -2.41076,0.004 -4.10649,-0.69204 -3.76708,-1.54609 l 1.85082,-4.65744 c 0.0892,-0.22458 0.31043,-0.4381 0.63236,-0.63169 0.9302,-0.49865 2.53769,-0.84271 4.22386,-0.8452 z m -39.45513,0.0589 c 2.4115,-0.004 4.10638,0.69232 3.76708,1.54609 l -1.85024,4.65596 c -0.0896,0.22538 -0.3114,0.44051 -0.63514,0.63464 -0.93077,0.49783 -2.53688,0.84126 -4.22166,0.84373 l -14.66589,0.0221 c -10e-4,-1.3e-4 -0.002,1.4e-4 -0.003,0 -1.64368,-0.20608 -2.66291,-0.7868 -2.39276,-1.46658 l 1.85082,-4.65743 c 0.33929,-0.85374 2.58985,-1.5558 5.00061,-1.55935 z m -39.45235,0.0559 c 2.41073,-0.004 4.10638,0.69236 3.76708,1.5461 l -1.85082,4.65743 c -0.27108,0.68214 -1.76265,1.26747 -3.58076,1.47689 l -15.93543,0.0236 c -1.64874,-0.20512 -2.67312,-0.78562 -2.40251,-1.46658 l 1.85082,-4.65744 c 0.3393,-0.85376 2.58988,-1.55579 5.00061,-1.55935 z m -39.4535,0.0589 c 2.41074,-0.004 4.10636,0.69235 3.76708,1.5461 l -1.85082,4.65743 c -0.27109,0.68212 -1.76212,1.266 -3.58018,1.47542 h -0.008 l -15.92244,0.0236 h -0.005 c -1.64969,-0.20496 -2.67323,-0.78538 -2.40251,-1.46659 l 1.85082,-4.65743 c 0.33929,-0.85373 2.58986,-1.5558 5.00061,-1.55935 z m -39.45292,0.0574 c 2.41115,-0.004 4.10637,0.69234 3.76708,1.54609 l -1.85082,4.65744 c -0.27097,0.68186 -1.7618,1.26725 -3.57914,1.47689 -10e-4,1.3e-4 -0.002,-1.4e-4 -0.003,0 l -14.42647,0.0206 c -2.41074,0.004 -4.10484,-0.69207 -3.76545,-1.5461 l 1.85082,-4.65743 c 0.0892,-0.2244 0.30922,-0.43823 0.63073,-0.63169 0.93007,-0.49889 2.53883,-0.84272 4.22549,-0.8452 z m -39.4535,0.0589 c 2.41111,-0.004 4.10635,0.69234 3.76707,1.5461 l -1.85081,4.65743 c -0.0896,0.22537 -0.31306,0.44053 -0.63676,0.63464 -0.93075,0.49785 -2.5355,0.84126 -4.22004,0.84373 l -13.15206,0.0191 c -2.41074,0.004 -4.10485,-0.69209 -3.76545,-1.5461 l 1.85082,-4.65743 c 0.0892,-0.22457 0.31045,-0.43811 0.63235,-0.63169 0.93019,-0.49868 2.53766,-0.84272 4.22387,-0.8452 z m 191.71332,13.68223 c 2.41076,-0.004 4.10631,0.69248 3.76707,1.54609 l -1.85081,4.65743 c -0.3394,0.85402 -2.58984,1.55581 -5.00061,1.55935 l -13.15044,0.0191 c -2.41076,0.004 -4.1065,-0.69205 -3.76708,-1.5461 l 1.85082,-4.65743 c 0.33924,-0.85362 2.5893,-1.55435 5.00004,-1.55788 z m -39.45293,0.0574 c 2.41152,-0.004 4.10631,0.69248 3.76708,1.5461 l -1.85082,4.65743 c -0.33942,0.85404 -2.58908,1.55582 -5.00061,1.55935 l -131.51141,0.19289 c -2.41074,0.004 -4.10484,-0.69206 -3.76545,-1.54609 l 1.85082,-4.65744 c 0.33923,-0.85362 2.58927,-1.55432 5.00003,-1.55787 z m -157.81285,0.23265 c 2.41113,-0.004 4.10632,0.69247 3.76708,1.5461 l -1.85082,4.65743 c -0.33941,0.85404 -2.58947,1.55582 -5.00061,1.55935 l -13.152057,0.0191 c -2.41074,0.004 -4.104859,-0.69208 -3.765455,-1.54609 l 1.850819,-4.65744 c 0.339228,-0.85361 2.589279,-1.55434 5.000033,-1.55787 z"
     inkscape:path-effect="#path-effect2" /><text
     xml:space="preserve"
     style="font-style:normal;font-variant:normal;font-weight:normal;font-stretch:normal;font-size:140.082px;line-height:1.15;font-family:'Ink Free';-inkscape-font-specification:'Ink Free';writing-mode:lr-tb;direction:ltr;fill:#fca311;stroke:#fca311;stroke-width:14.5919"
     x="116.94945"
     y="246.90942"
     id="text1"
     transform="scale(1.0191367,0.98122264)"><tspan
       id="tspan1"
       style="font-style:normal;font-variant:normal;font-weight:normal;font-stretch:normal;font-family:'Ink Free';-inkscape-font-specification:'Ink Free';stroke-width:14.5919"
       x="116.94945"
       y="246.90942"
       sodipodi:role="line">B#</tspan></text></svg>
